<?xml version="1.0" encoding="utf-8"?><svg xmlns="http://www.w3.org/2000/svg" xmlns:xlink="http://www.w3.org/1999/xlink"><symbol id="cart" xml:space="preserve" viewBox="0 0 24 23" xmlns="http://www.w3.org/2000/svg"><style>.ast0{fill:#2c2c2c}</style><circle class="ast0" cx="9" cy="21" r="2"/><circle class="ast0" cx="20" cy="21" r="2"/><path class="ast0" d="M9.6 17c-.7 0-1.3-.2-1.9-.7-.5-.4-.9-1.1-1.1-1.8L5 6.2v-.1L4.2 2H1c-.6 0-1-.4-1-1s.4-1 1-1h4c.5 0 .9.3 1 .8L6.8 5H23c.3 0 .6.1.8.4.2.2.2.5.2.8l-1.6 8.4c-.1.7-.5 1.3-1.1 1.8-.5.4-1.2.7-1.9.7L9.6 17c.1 0 0 0 0 0zM7.2 7l1.4 7.2c0 .2.2.4.4.6.2.1.4.2.7.2h9.7c.3 0 .5-.1.7-.2.2-.1.3-.4.4-.6L21.8 7H7.2z"/></symbol></svg>