<?xml version="1.0" encoding="utf-8"?><svg xmlns="http://www.w3.org/2000/svg" xmlns:xlink="http://www.w3.org/1999/xlink"><symbol id="arrow-diagonal" xml:space="preserve" viewBox="0 0 28.7 28.7" xmlns="http://www.w3.org/2000/svg"><style>.ast0{fill:#2c2c2c}</style><path class="ast0" d="M1 28.7c-.3 0-.5-.1-.7-.3-.4-.4-.4-1 0-1.4L27 .3c.4-.4 1-.4 1.4 0s.4 1 0 1.4L1.7 28.4c-.2.2-.4.3-.7.3z"/><path class="ast0" d="M27.7 28.7c-.6 0-1-.4-1-1V2H1c-.6 0-1-.4-1-1s.4-1 1-1h26.7c.6 0 1 .4 1 1v26.7c0 .5-.5 1-1 1z"/></symbol><symbol viewBox="0 0 20.5 7.4" id="arrow-left" xmlns="http://www.w3.org/2000/svg"><path d="M.1 3.3c-.1.2-.1.5 0 .7l3.2 3.2c.2.2.5.2.7 0 .2-.2.2-.5 0-.7L1.2 3.7 4 .9c.2-.2.2-.5 0-.7-.2-.2-.5-.2-.7-.1L.1 3.3zm20.4-.1H.5v1h20v-1z"/></symbol><symbol viewBox="0 0 20.5 7.4" id="arrow-right" xmlns="http://www.w3.org/2000/svg"><path d="M20.4 4c.2-.2.2-.5 0-.7L17.2.1c-.2-.1-.5-.1-.7 0-.2.2-.2.5 0 .7l2.8 2.8-2.8 2.8c-.2.2-.2.5 0 .7.2.2.5.2.7 0L20.4 4zM0 4.2h20v-1H0v1z"/></symbol><symbol id="cart" xml:space="preserve" viewBox="0 0 24 23" xmlns="http://www.w3.org/2000/svg"><style>.dst0{fill:#2c2c2c}</style><circle class="dst0" cx="9" cy="21" r="2"/><circle class="dst0" cx="20" cy="21" r="2"/><path class="dst0" d="M9.6 17c-.7 0-1.3-.2-1.9-.7-.5-.4-.9-1.1-1.1-1.8L5 6.2v-.1L4.2 2H1c-.6 0-1-.4-1-1s.4-1 1-1h4c.5 0 .9.3 1 .8L6.8 5H23c.3 0 .6.1.8.4.2.2.2.5.2.8l-1.6 8.4c-.1.7-.5 1.3-1.1 1.8-.5.4-1.2.7-1.9.7L9.6 17c.1 0 0 0 0 0zM7.2 7l1.4 7.2c0 .2.2.4.4.6.2.1.4.2.7.2h9.7c.3 0 .5-.1.7-.2.2-.1.3-.4.4-.6L21.8 7H7.2z"/></symbol><symbol viewBox="0 0 21.3 12" id="chevron-down" xmlns="http://www.w3.org/2000/svg"><path d="M11.1 12L0 1.5 1.4 0l9.7 9.2L19.8 0l1.5 1.4z"/></symbol><symbol viewBox="0 0 30 30" id="facebook" xmlns="http://www.w3.org/2000/svg"><path d="M16.4 26.5H13c-.4 0-.8-.2-1.1-.5-.3-.3-.4-.7-.4-1.1v-6.7H9.9c-.4 0-.8-.2-1.1-.5-.3-.3-.4-.7-.4-1.1v-3.3c0-.2 0-.4.1-.6.1-.2.2-.4.3-.5.2 0 .4-.1.6-.2.2-.1.4-.1.6-.1h1.5V9.6c0-.8.1-1.6.4-2.3.3-.8.7-1.4 1.3-2 .6-.6 1.3-1 2-1.3.7-.3 1.5-.4 2.3-.4h2.6c.2 0 .4 0 .6.1.2 0 .3.1.5.3.1.1.3.3.3.5.1.2.1.4.1.6v3.1c0 .2 0 .4-.1.6-.1.2-.2.4-.3.5-.1.1-.3.3-.5.3-.2.1-.4.1-.6.1H18v2.2h1.9c.2 0 .4 0 .6.1.2.1.4.2.5.3.1.1.3.3.3.5.1.2.1.4.1.6v3.3c0 .4-.2.8-.5 1.1-.3.3-.7.5-1.1.5h-2V25c0 .2 0 .4-.1.6-.1.2-.2.4-.3.5-.1.1-.3.3-.5.3-.1.1-.3.1-.5.1zM10 12.9h-.2c-.1 0-.1.1-.2.1-.1.1-.1.1-.1.2v3.5c0 .1.1.3.2.4.1.1.2.2.4.2h2.5V25c0 .1.1.3.2.4.1.1.2.2.4.2h3.6c.1 0 .1-.1.2-.1.1-.1.1-.1.1-.2v-7.9h3c.1 0 .3-.1.4-.2.1-.1.2-.2.2-.4v-3.5c0-.1-.1-.1-.1-.2 0 0-.1-.1-.2-.1H17V9.9c0-.2 0-.5.1-.8.1-.3.5-.5 1.2-.5h1.9c.1 0 .1-.1.2-.1.1-.1.1-.1.1-.2V4.9c0-.1-.1-.1-.1-.2s-.1-.1-.2-.1h-2.8c-.7 0-1.3.1-2 .3-.6.2-1.2.6-1.6 1.1-.4.5-.8 1.1-1 1.7-.2.6-.3 1.3-.3 2V13H10v-.1zm8-.5zm-.2-2.7zm-.2-.4z"/></symbol><symbol id="mail" xml:space="preserve" viewBox="0 0 30 30" xmlns="http://www.w3.org/2000/svg"><style>.gst0{fill:#1c3e9a}</style><path class="gst0" d="M25.5 26h-21c-.9 0-1.7-.8-1.7-1.7V5.7c0-.9.8-1.7 1.7-1.7h21c.9 0 1.7.8 1.7 1.7v18.6c0 .9-.8 1.7-1.7 1.7zM4.5 5c-.4 0-.7.3-.7.7v18.6c0 .4.3.7.7.7h21c.4 0 .7-.3.7-.7V5.7c0-.4-.3-.7-.7-.7h-21z"/><path class="gst0" d="M15.5 15.5L3.4 4.9l.6-.8 11.5 10.1L26 4.5l.7.7z"/></symbol><symbol viewBox="0 0 30 30" id="twitter" xmlns="http://www.w3.org/2000/svg"><path d="M10.5 25.2c-2.9 0-5.5-.8-7.1-1.9l-.1-.1-.1-.3.1-.3.3-.2h.2c.6-.1 3.4-.4 5.2-1.5-1.2-.5-3.1-1.5-3.6-3.4v-.4l.3-.3.1-.1h.4c-1.2-.8-2.5-2.1-2.5-4.2V12h.8c-.1 0 .1 0 .2.1-.5-.6-.8-1.4-1-2.2-.2-1.3 0-2.6.6-3.7l.1-.2.5-.1.2.1.1.1c.4.5 4.3 4.6 8.8 4.7-.1-1.7.4-5.1 4.3-5.9.1 0 3.1-.6 4.6 1.5.5-.1 1.7-.6 2.2-1l.2-.2.7.2v.4c0 .5-.3 1.1-.5 1.6.2 0 .3-.1.5-.1l.3-.1.5.3v.4l-.1.1c-.6 1-1.4 1.8-2.3 2.4.1 2.1-.3 4.2-1.2 6.2-.9 2-2.2 3.9-3.9 5.3-2.7 2.4-5.9 3.3-8.8 3.3zM5.1 23c2.9 1.3 8.8 2.3 13.6-1.8 1.5-1.3 2.8-3.1 3.6-4.9.8-1.9 1.2-4 1.1-6v-.2l.2-.3.1-.1c.6-.3 1.1-.8 1.6-1.3-.2 0-.4 0-.6-.1l-.7-.1.3-.6c.1-.2.3-.6.4-.9-.7.3-1.6.6-1.9.7h-.3l-.3-.1-.1-.1c-1.1-1.8-3.8-1.3-3.8-1.3-4.2.9-3.5 5.2-3.4 5.3l.1.6h-.6c-4.3.2-8.2-3.2-9.5-4.6-.3.8-.4 1.6-.2 2.5.2 1 .8 1.9 1.6 2.6l.2.3v.3l-.1.3-.3.2H6c-.5 0-.9-.1-1.4-.2.4 2.1 2.5 3.1 3.2 3.4l.1.1.2.3v.3l-.1.1-.2.1c-.4.1-.9.2-1.3.2.8 1.6 3 2.3 3.5 2.4l.2.1.1.1.1.3v.3l-.2.1c-1.4 1.2-3.6 1.8-5.1 2zM22.7 6.9zM26 5.8z"/></symbol></svg>