<?xml version="1.0" standalone="no"?>
<!DOCTYPE svg PUBLIC "-//W3C//DTD SVG 20010904//EN"
 "http://www.w3.org/TR/2001/REC-SVG-20010904/DTD/svg10.dtd">
<svg version="1.0" xmlns="http://www.w3.org/2000/svg"
 width="94.000000pt" height="94.000000pt" viewBox="0 0 94.000000 94.000000"
 preserveAspectRatio="xMidYMid meet">
<metadata>
Created by potrace 1.14, written by Peter Selinger 2001-2017
</metadata>
<g transform="translate(0.000000,94.000000) scale(0.100000,-0.100000)"
fill="#000000" stroke="none">
<path d="M145 821 c-16 -4 -40 -13 -53 -20 l-22 -12 47 -67 c91 -131 104 -144
127 -137 90 28 122 32 183 19 60 -12 153 -57 153 -74 0 -4 24 1 53 12 76 29
186 22 252 -16 l47 -28 -79 109 c-65 89 -88 113 -132 137 -70 37 -160 44 -238
16 l-55 -19 -26 25 c-56 51 -170 76 -257 55z"/>
<path d="M63 565 c0 -22 2 -30 4 -17 2 12 2 30 0 40 -3 9 -5 -1 -4 -23z"/>
<path d="M15 580 c3 -5 8 -10 11 -10 2 0 4 5 4 10 0 6 -5 10 -11 10 -5 0 -7
-4 -4 -10z"/>
<path d="M112 550 c0 -14 2 -19 5 -12 2 6 2 18 0 25 -3 6 -5 1 -5 -13z"/>
<path d="M130 561 c0 -6 5 -13 10 -16 6 -3 10 1 10 9 0 9 -4 16 -10 16 -5 0
-10 -4 -10 -9z"/>
<path d="M772 378 c3 -101 6 -123 18 -123 15 0 17 10 19 92 1 26 6 34 27 39
34 9 41 -4 39 -69 -1 -47 7 -66 28 -67 11 0 8 129 -3 151 -12 22 -59 26 -78 7
-13 -13 -15 -6 -14 60 0 25 -4 32 -19 32 -19 0 -19 -7 -17 -122z"/>
<path d="M4 368 c1 -93 4 -113 16 -113 12 0 16 18 20 82 l5 81 30 -49 c16 -27
34 -49 40 -49 6 0 24 22 40 49 l30 49 5 -81 c4 -64 8 -82 20 -82 12 0 15 19
14 110 0 101 -2 110 -20 113 -13 2 -25 -8 -37 -30 -10 -18 -26 -44 -36 -57
l-18 -24 -37 56 c-22 36 -43 57 -54 57 -18 0 -19 -9 -18 -112z"/>
<path d="M653 440 c-3 -11 -11 -20 -17 -20 -7 0 -13 -7 -13 -15 0 -8 6 -15 14
-15 9 0 13 -16 13 -59 0 -69 16 -90 57 -75 30 10 32 31 3 26 -14 -2 -20 3 -21
15 0 10 -2 35 -3 56 -2 33 1 37 21 37 14 0 23 6 23 15 0 8 -9 15 -20 15 -18 0
-25 10 -21 33 3 17 -31 5 -36 -13z"/>
<path d="M279 398 c-2 -41 2 -103 7 -120 7 -23 46 -33 72 -19 13 7 22 7 31 -2
19 -19 26 4 24 80 -2 88 -1 83 -18 83 -12 0 -15 -13 -15 -58 0 -60 -11 -82
-42 -82 -20 0 -28 26 -26 90 1 35 -2 46 -15 48 -12 2 -17 -4 -18 -20z"/>
<path d="M480 410 c-21 -13 -4 -25 34 -22 23 2 35 -2 39 -12 4 -9 3 -16 -1
-17 -70 -6 -92 -19 -92 -55 0 -43 40 -65 80 -44 13 7 21 7 25 0 16 -26 25 -4
25 59 0 50 -4 74 -16 85 -17 18 -71 21 -94 6z m68 -102 c-4 -28 -45 -38 -55
-13 -7 19 12 35 40 35 13 0 18 -6 15 -22z"/>
<path d="M709 191 c5 -9 7 -24 5 -34 -1 -11 0 -16 4 -13 13 13 10 63 -3 63
-10 0 -11 -5 -6 -16z"/>
<path d="M242 170 c0 -19 2 -27 5 -17 2 9 2 25 0 35 -3 9 -5 1 -5 -18z"/>
<path d="M324 170 l1 -35 57 0 c39 -1 59 4 63 13 7 18 -26 28 -36 10 -5 -9
-19 -13 -43 -10 -29 3 -36 9 -39 31 -3 18 -4 15 -3 -9z"/>
<path d="M887 193 c-2 -5 -1 -19 4 -33 7 -23 7 -23 8 8 1 31 -3 40 -12 25z"/>
<path d="M217 170 c4 -14 0 -20 -11 -20 -9 0 -16 5 -16 10 0 6 -10 9 -22 9
-17 -1 -19 -2 -5 -6 29 -8 19 -20 -13 -15 -16 2 -30 0 -30 -5 0 -12 93 -11
102 2 11 14 10 45 -1 45 -5 0 -7 -9 -4 -20z"/>
<path d="M557 183 c-10 -9 -9 -23 1 -23 5 0 9 7 9 15 0 17 -1 18 -10 8z"/>
<path d="M635 180 c-3 -5 -1 -10 4 -10 6 0 11 5 11 10 0 6 -2 10 -4 10 -3 0
-8 -4 -11 -10z"/>
<path d="M752 165 c0 -16 2 -22 5 -12 2 9 2 23 0 30 -3 6 -5 -1 -5 -18z"/>
<path d="M847 184 c-3 -4 -2 -14 3 -24 5 -10 7 -20 5 -24 -3 -3 0 -2 7 3 8 8
8 14 -1 25 -9 11 -9 15 1 19 7 3 8 6 2 6 -6 1 -14 -2 -17 -5z"/>
<path d="M11 148 c0 -22 1 -22 9 -3 5 11 9 15 9 9 1 -18 33 -26 43 -12 4 7 7
18 7 23 0 6 -3 4 -6 -2 -6 -15 -33 -17 -33 -3 0 6 -7 10 -15 10 -9 0 -15 -9
-14 -22z"/>
<path d="M97 164 c-3 -3 -3 -13 0 -21 3 -8 0 -19 -8 -24 -11 -7 -11 -9 4 -9
12 0 17 8 17 30 0 31 -2 35 -13 24z"/>
<path d="M290 160 c10 -6 11 -10 3 -10 -7 0 -13 -4 -13 -8 0 -5 7 -9 15 -9 8
0 15 9 15 19 0 11 -7 18 -17 18 -15 0 -16 -2 -3 -10z"/>
<path d="M358 163 c6 -2 18 -2 25 0 6 3 1 5 -13 5 -14 0 -19 -2 -12 -5z"/>
<path d="M470 155 c0 -8 5 -15 11 -15 5 0 7 5 4 10 -10 16 7 12 19 -5 8 -11
15 -12 26 -4 13 9 12 10 -2 5 -12 -3 -18 0 -18 9 0 8 -9 15 -20 15 -11 0 -20
-7 -20 -15z"/>
<path d="M580 153 c0 -15 2 -16 10 -3 9 13 11 13 20 0 8 -13 10 -12 10 3 0 10
-8 17 -20 17 -12 0 -20 -7 -20 -17z"/>
<path d="M555 140 c3 -5 8 -10 11 -10 2 0 4 5 4 10 0 6 -5 10 -11 10 -5 0 -7
-4 -4 -10z"/>
<path d="M780 145 c0 -8 29 -12 39 -5 9 5 4 8 -13 8 -14 0 -26 -2 -26 -3z"/>
</g>
</svg>
