<?xml version="1.0" encoding="utf-8"?>
<!-- Generator: Adobe Illustrator 21.1.0, SVG Export Plug-In . SVG Version: 6.00 Build 0)  -->
<svg version="1.1" id="Слой_1" xmlns="http://www.w3.org/2000/svg" xmlns:xlink="http://www.w3.org/1999/xlink" x="0px" y="0px"
	 width="28.7px" height="28.7px" viewBox="0 0 28.7 28.7" style="enable-background:new 0 0 28.7 28.7;" xml:space="preserve">
<style type="text/css">
	.st0{fill:#2C2C2C;}
</style>
<path class="st0" d="M1,28.7c-0.3,0-0.5-0.1-0.7-0.3c-0.4-0.4-0.4-1,0-1.4L27,0.3c0.4-0.4,1-0.4,1.4,0s0.4,1,0,1.4L1.7,28.4
	C1.5,28.6,1.3,28.7,1,28.7z"/>
<path class="st0" d="M27.7,28.7c-0.6,0-1-0.4-1-1V2H1C0.4,2,0,1.6,0,1s0.4-1,1-1h26.7c0.6,0,1,0.4,1,1v26.7
	C28.7,28.2,28.2,28.7,27.7,28.7z"/>
</svg>
