<?xml version="1.0" encoding="utf-8"?>
<!-- Generator: Adobe Illustrator 21.1.0, SVG Export Plug-In . SVG Version: 6.00 Build 0)  -->
<svg version="1.1" id="Слой_1" xmlns="http://www.w3.org/2000/svg" xmlns:xlink="http://www.w3.org/1999/xlink" x="0px" y="0px"
	 width="30px" height="30px" viewBox="0 0 30 30" style="enable-background:new 0 0 30 30;" xml:space="preserve">
<style type="text/css">
	.st0{fill:#1C3E9A;}
</style>
<path class="st0" d="M25.5,26h-21c-0.9,0-1.7-0.8-1.7-1.7V5.7C2.8,4.8,3.6,4,4.5,4h21c0.9,0,1.7,0.8,1.7,1.7v18.6
	C27.2,25.2,26.4,26,25.5,26z M4.5,5C4.1,5,3.8,5.3,3.8,5.7v18.6c0,0.4,0.3,0.7,0.7,0.7h21c0.4,0,0.7-0.3,0.7-0.7V5.7
	c0-0.4-0.3-0.7-0.7-0.7H4.5z"/>
<polygon class="st0" points="15.5,15.5 3.4,4.9 4,4.1 15.5,14.2 26,4.5 26.7,5.2 "/>
</svg>
