<?xml version="1.0" encoding="utf-8"?>
<!-- Generator: Adobe Illustrator 21.1.0, SVG Export Plug-In . SVG Version: 6.00 Build 0)  -->
<svg version="1.1" id="Слой_1" xmlns="http://www.w3.org/2000/svg" xmlns:xlink="http://www.w3.org/1999/xlink" x="0px" y="0px"
	 width="30px" height="30px" viewBox="0 0 30 30" style="enable-background:new 0 0 30 30;" xml:space="preserve">
<style type="text/css">
	.st0{fill:#1C3E9A;}
</style>
<path class="st0" d="M10.5,25.2c-2.9,0-5.5-0.8-7.1-1.9l-0.1-0.1l-0.1-0.3l0.1-0.3l0.3-0.2l0.2,0c0.6-0.1,3.4-0.4,5.2-1.5
	c-1.2-0.5-3.1-1.5-3.6-3.4l0-0.1l0-0.3l0.3-0.3l0.1-0.1l0.2,0c0.1,0,0.1,0,0.2,0c-1.2-0.8-2.5-2.1-2.5-4.2l0-0.5l0.7,0l0.1,0
	C4.4,12,4.6,12,4.7,12.1c-0.5-0.6-0.8-1.4-1-2.2C3.5,8.6,3.7,7.3,4.3,6.2L4.4,6l0.5-0.1L5.1,6l0.1,0.1c0.4,0.5,4.3,4.6,8.8,4.7
	c-0.1-1.7,0.4-5.1,4.3-5.9c0.1,0,3.1-0.6,4.6,1.5c0.5-0.1,1.7-0.6,2.2-1l0.2-0.2L26,5.4l0,0.4c0,0.5-0.3,1.1-0.5,1.6
	c0.2,0,0.3-0.1,0.5-0.1l0.3-0.1l0.5,0.3l0,0.4l-0.1,0.1c-0.6,1-1.4,1.8-2.3,2.4c0.1,2.1-0.3,4.2-1.2,6.2c-0.9,2-2.2,3.9-3.9,5.3
	C16.6,24.3,13.4,25.2,10.5,25.2z M5.1,23c2.9,1.3,8.8,2.3,13.6-1.8c1.5-1.3,2.8-3.1,3.6-4.9c0.8-1.9,1.2-4,1.1-6l0-0.2l0.2-0.3
	l0.1-0.1c0.6-0.3,1.1-0.8,1.6-1.3c-0.2,0-0.4,0-0.6-0.1L24,8.2l0.3-0.6c0.1-0.2,0.3-0.6,0.4-0.9c-0.7,0.3-1.6,0.6-1.9,0.7l-0.3,0
	l-0.3-0.1l-0.1-0.1c-1.1-1.8-3.8-1.3-3.8-1.3c-4.2,0.9-3.5,5.2-3.4,5.3l0.1,0.6l-0.6,0C10.1,12,6.2,8.6,4.9,7.2
	C4.6,8,4.5,8.8,4.7,9.7c0.2,1,0.8,1.9,1.6,2.6l0.2,0.3l0,0.3l-0.1,0.3l-0.3,0.2l-0.1,0c-0.5,0-0.9-0.1-1.4-0.2
	c0.4,2.1,2.5,3.1,3.2,3.4l0.1,0.1l0.2,0.3l0,0.3L8,17.4l-0.2,0.1c-0.4,0.1-0.9,0.2-1.3,0.2c0.8,1.6,3,2.3,3.5,2.4l0.2,0.1l0.1,0.1
	l0.1,0.3l0,0.3L10.2,21C8.8,22.2,6.6,22.8,5.1,23z M22.7,6.9L22.7,6.9L22.7,6.9z M26,5.8L26,5.8L26,5.8z"/>
</svg>
